<svg id="Layer_1" data-name="Layer 1" xmlns="http://www.w3.org/2000/svg" viewBox="0 0 58.17 39"><defs><style>.cls-1{font-size:7.7px;font-family:BerlinSansFBDemi-Bold, Berlin Sans FB Demi;font-weight:700;}.cls-1,.cls-2{fill:#61cae6;}</style></defs><title>Untitled-1</title><text class="cls-1" transform="translate(0 37.42)">Ahmed Aldesoky</text><path class="cls-2" d="M3,30.54a.24.24,0,1,1,0-.47H54.65a.24.24,0,1,1,0,.47Z" transform="translate(-0.09 -0.25)"/><polygon class="cls-2" points="15.48 17.86 15.01 19.03 19.93 19.03 19.46 17.86 15.48 17.86"/><polygon class="cls-2" points="14.11 21.36 20.87 21.36 20.37 20.19 14.56 20.19 14.11 21.36"/><polygon class="cls-2" points="13.65 22.52 13.2 23.69 21.78 23.69 21.29 22.52 13.65 22.52"/><polygon class="cls-2" points="13.07 0.09 2.47 26.89 3.73 26.89 13.7 1.66 23.67 26.89 24.92 26.89 14.33 0.09 13.07 0.09"/><polygon class="cls-2" points="13.85 4.43 4.98 26.89 6.23 26.89 14.51 5.92 13.85 4.43"/><polygon class="cls-2" points="15.14 7.51 7.49 26.89 8.75 26.89 15.76 9.11 15.14 7.51"/><polygon class="cls-2" points="16.37 10.71 10 26.89 11.24 26.89 16.99 12.34 16.37 10.71"/><path class="cls-2" d="M46.74,6.07a5.92,5.92,0,0,0-3.53-1.16H32.94V22.38H43.21a5.92,5.92,0,0,0,3.53-1.16A8.09,8.09,0,0,0,49.34,18a10.09,10.09,0,0,0,1-4.38,10.09,10.09,0,0,0-1-4.4A8.13,8.13,0,0,0,46.74,6.07ZM47.36,19a5.13,5.13,0,0,1-4.15,2.23H34.1V6.07h9.11a4.83,4.83,0,0,1,2.94,1A7.06,7.06,0,0,1,48.3,9.84a9,9,0,0,1,.8,3.81A8.39,8.39,0,0,1,47.36,19Z" transform="translate(-0.09 -0.25)"/><path class="cls-2" d="M53.47,6.93A13,13,0,0,0,49.1,2,10.48,10.48,0,0,0,43.21.25L16.92.34H15.67l10.59,26.8h1.26L43.21,27A10.3,10.3,0,0,0,47.77,26a11.83,11.83,0,0,0,3.79-2.85,13.94,13.94,0,0,0,2.57-4.28,14.32,14.32,0,0,0,1-5.2A14.25,14.25,0,0,0,53.47,6.93ZM53,18.39a12.69,12.69,0,0,1-2.31,3.91,11,11,0,0,1-3.41,2.61,9.15,9.15,0,0,1-4.1,1H29.44V1.41H43.21a9.15,9.15,0,0,1,4.1,1A11,11,0,0,1,50.72,5,12.92,12.92,0,0,1,53,8.9a13.11,13.11,0,0,1,.86,4.75A13.1,13.1,0,0,1,53,18.39Z" transform="translate(-0.09 -0.25)"/><path class="cls-2" d="M47.92,4.06a8.18,8.18,0,0,0-4.71-1.48H30.61V24.71h12.6a8.18,8.18,0,0,0,4.71-1.48,10.39,10.39,0,0,0,3.48-4,12.19,12.19,0,0,0,1.3-5.55,12.2,12.2,0,0,0-1.3-5.56A10.39,10.39,0,0,0,47.92,4.06Zm2.45,14.55a9.4,9.4,0,0,1-3,3.61,7,7,0,0,1-4.12,1.33H31.77V3.74H43.21a7,7,0,0,1,4.11,1.33,9.34,9.34,0,0,1,3,3.61,11.12,11.12,0,0,1,1.13,5A11,11,0,0,1,50.37,18.61Z" transform="translate(-0.09 -0.25)"/><path class="cls-2" d="M43.21,7.24H35.27V20.05h7.94a4,4,0,0,0,3.31-1.87,7.46,7.46,0,0,0,1.39-4.53,7.48,7.48,0,0,0-1.39-4.53A4,4,0,0,0,43.21,7.24Zm2.47,10.11a2.94,2.94,0,0,1-2.47,1.54H36.43V8.4h6.78a3,3,0,0,1,2.47,1.53,6.48,6.48,0,0,1,1,3.72A6.46,6.46,0,0,1,45.68,17.35Z" transform="translate(-0.09 -0.25)"/></svg>
